<svg viewBox="0 0 2208 1184"  version="1.1" xmlns="http://www.w3.org/2000/svg">
<g id="qubit_lines">
<path id="qubit_line:0" d="M64,64 L2176,64 " stroke="black"/>
<text dominant-baseline="central" text-anchor="end" font-family="monospace" font-size="12" x="64" y="64">q0</text>
<path id="qubit_line:1" d="M64,128 L2176,128 " stroke="black"/>
<text dominant-baseline="central" text-anchor="end" font-family="monospace" font-size="12" x="64" y="128">q1</text>
<path id="qubit_line:2" d="M64,192 L2176,192 " stroke="black"/>
<text dominant-baseline="central" text-anchor="end" font-family="monospace" font-size="12" x="64" y="192">q2</text>
<path id="qubit_line:3" d="M64,256 L2176,256 " stroke="black"/>
<text dominant-baseline="central" text-anchor="end" font-family="monospace" font-size="12" x="64" y="256">q3</text>
<path id="qubit_line:4" d="M64,320 L2176,320 " stroke="black"/>
<text dominant-baseline="central" text-anchor="end" font-family="monospace" font-size="12" x="64" y="320">q4</text>
<path id="qubit_line:5" d="M64,384 L2176,384 " stroke="black"/>
<text dominant-baseline="central" text-anchor="end" font-family="monospace" font-size="12" x="64" y="384">q5</text>
<path id="qubit_line:6" d="M64,448 L2176,448 " stroke="black"/>
<text dominant-baseline="central" text-anchor="end" font-family="monospace" font-size="12" x="64" y="448">q6</text>
<path id="qubit_line:7" d="M64,512 L2176,512 " stroke="black"/>
<text dominant-baseline="central" text-anchor="end" font-family="monospace" font-size="12" x="64" y="512">q7</text>
<path id="qubit_line:8" d="M64,576 L2176,576 " stroke="black"/>
<text dominant-baseline="central" text-anchor="end" font-family="monospace" font-size="12" x="64" y="576">q8</text>
<path id="qubit_line:9" d="M64,640 L2176,640 " stroke="black"/>
<text dominant-baseline="central" text-anchor="end" font-family="monospace" font-size="12" x="64" y="640">q9</text>
<path id="qubit_line:10" d="M64,704 L2176,704 " stroke="black"/>
<text dominant-baseline="central" text-anchor="end" font-family="monospace" font-size="12" x="64" y="704">q10</text>
<path id="qubit_line:11" d="M64,768 L2176,768 " stroke="black"/>
<text dominant-baseline="central" text-anchor="end" font-family="monospace" font-size="12" x="64" y="768">q11</text>
<path id="qubit_line:12" d="M64,832 L2176,832 " stroke="black"/>
<text dominant-baseline="central" text-anchor="end" font-family="monospace" font-size="12" x="64" y="832">q12</text>
<path id="qubit_line:13" d="M64,896 L2176,896 " stroke="black"/>
<text dominant-baseline="central" text-anchor="end" font-family="monospace" font-size="12" x="64" y="896">q13</text>
<path id="qubit_line:14" d="M64,960 L2176,960 " stroke="black"/>
<text dominant-baseline="central" text-anchor="end" font-family="monospace" font-size="12" x="64" y="960">q14</text>
<path id="qubit_line:15" d="M64,1024 L2176,1024 " stroke="black"/>
<text dominant-baseline="central" text-anchor="end" font-family="monospace" font-size="12" x="64" y="1024">q15</text>
<path id="qubit_line:16" d="M64,1088 L2176,1088 " stroke="black"/>
<text dominant-baseline="central" text-anchor="end" font-family="monospace" font-size="12" x="64" y="1088">q16</text>
</g>
<rect x="80" y="48" width="32" height="32" stroke="black" fill="black"/>
<text dominant-baseline="central" text-anchor="middle" font-family="monospace" font-size="26" x="96" y="64" fill="white">R<tspan baseline-shift="sub" font-size="16">X</tspan></text>
<rect x="80" y="112" width="32" height="32" stroke="black" fill="black"/>
<text dominant-baseline="central" text-anchor="middle" font-family="monospace" font-size="30" x="96" y="128" fill="white">R</text>
<path d="M160,64 L160,128 " stroke="black"/>
<circle cx="160" cy="64" r="12" stroke="none" fill="black"/>
<circle cx="160" cy="128" r="12" stroke="black" fill="white"/>
<path d="M148,128 L172,128 M160,116 L160,140 " stroke="black"/>
<rect x="144" y="176" width="32" height="32" stroke="black" fill="black"/>
<text dominant-baseline="central" text-anchor="middle" font-family="monospace" font-size="30" x="160" y="192" fill="white">R</text>
<path d="M224,64 L224,192 " stroke="black"/>
<circle cx="224" cy="64" r="12" stroke="none" fill="black"/>
<circle cx="224" cy="192" r="12" stroke="black" fill="white"/>
<path d="M212,192 L236,192 M224,180 L224,204 " stroke="black"/>
<rect x="208" y="240" width="32" height="32" stroke="black" fill="black"/>
<text dominant-baseline="central" text-anchor="middle" font-family="monospace" font-size="30" x="224" y="256" fill="white">R</text>
<path d="M288,128 L288,256 " stroke="black"/>
<circle cx="288" cy="128" r="12" stroke="none" fill="black"/>
<circle cx="288" cy="256" r="12" stroke="black" fill="white"/>
<path d="M276,256 L300,256 M288,244 L288,268 " stroke="black"/>
<rect x="272" y="304" width="32" height="32" stroke="black" fill="black"/>
<text dominant-baseline="central" text-anchor="middle" font-family="monospace" font-size="30" x="288" y="320" fill="white">R</text>
<path d="M352,192 L352,320 " stroke="black"/>
<circle cx="352" cy="192" r="12" stroke="none" fill="black"/>
<circle cx="352" cy="320" r="12" stroke="black" fill="white"/>
<path d="M340,320 L364,320 M352,308 L352,332 " stroke="black"/>
<rect x="336" y="368" width="32" height="32" stroke="black" fill="black"/>
<text dominant-baseline="central" text-anchor="middle" font-family="monospace" font-size="30" x="352" y="384" fill="white">R</text>
<path d="M416,64 L416,384 " stroke="black"/>
<circle cx="416" cy="64" r="12" stroke="none" fill="black"/>
<circle cx="416" cy="384" r="12" stroke="black" fill="white"/>
<path d="M404,384 L428,384 M416,372 L416,396 " stroke="black"/>
<rect x="400" y="432" width="32" height="32" stroke="black" fill="black"/>
<text dominant-baseline="central" text-anchor="middle" font-family="monospace" font-size="30" x="416" y="448" fill="white">R</text>
<path d="M480,192 L480,448 " stroke="black"/>
<circle cx="480" cy="192" r="12" stroke="none" fill="black"/>
<circle cx="480" cy="448" r="12" stroke="black" fill="white"/>
<path d="M468,448 L492,448 M480,436 L480,460 " stroke="black"/>
<rect x="464" y="496" width="32" height="32" stroke="black" fill="black"/>
<text dominant-baseline="central" text-anchor="middle" font-family="monospace" font-size="30" x="480" y="512" fill="white">R</text>
<path d="M544,64 L544,512 " stroke="black"/>
<circle cx="544" cy="64" r="12" stroke="none" fill="black"/>
<circle cx="544" cy="512" r="12" stroke="black" fill="white"/>
<path d="M532,512 L556,512 M544,500 L544,524 " stroke="black"/>
<rect x="528" y="560" width="32" height="32" stroke="black" fill="black"/>
<text dominant-baseline="central" text-anchor="middle" font-family="monospace" font-size="30" x="544" y="576" fill="white">R</text>
<path d="M608,192 L608,576 " stroke="black"/>
<circle cx="608" cy="192" r="12" stroke="none" fill="black"/>
<circle cx="608" cy="576" r="12" stroke="black" fill="white"/>
<path d="M596,576 L620,576 M608,564 L608,588 " stroke="black"/>
<rect x="592" y="816" width="32" height="32" stroke="black" fill="black"/>
<text dominant-baseline="central" text-anchor="middle" font-family="monospace" font-size="30" x="608" y="832" fill="white">R</text>
<path d="M672,448 L672,832 " stroke="black"/>
<circle cx="672" cy="448" r="12" stroke="none" fill="black"/>
<circle cx="672" cy="832" r="12" stroke="black" fill="white"/>
<path d="M660,832 L684,832 M672,820 L672,844 " stroke="black"/>
<rect x="720" y="624" width="32" height="32" stroke="black" fill="black"/>
<text dominant-baseline="central" text-anchor="middle" font-family="monospace" font-size="30" x="736" y="640" fill="white">R</text>
<path d="M800,512 L800,640 " stroke="black"/>
<circle cx="800" cy="512" r="12" stroke="none" fill="black"/>
<circle cx="800" cy="640" r="12" stroke="black" fill="white"/>
<path d="M788,640 L812,640 M800,628 L800,652 " stroke="black"/>
<rect x="784" y="688" width="32" height="32" stroke="black" fill="black"/>
<text dominant-baseline="central" text-anchor="middle" font-family="monospace" font-size="30" x="800" y="704" fill="white">R</text>
<path d="M864,64 L864,704 " stroke="black"/>
<circle cx="864" cy="64" r="12" stroke="none" fill="black"/>
<circle cx="864" cy="704" r="12" stroke="black" fill="white"/>
<path d="M852,704 L876,704 M864,692 L864,716 " stroke="black"/>
<rect x="848" y="880" width="32" height="32" stroke="black" fill="black"/>
<text dominant-baseline="central" text-anchor="middle" font-family="monospace" font-size="30" x="864" y="896" fill="white">R</text>
<path d="M928,512 L928,896 " stroke="black"/>
<circle cx="928" cy="512" r="12" stroke="none" fill="black"/>
<circle cx="928" cy="896" r="12" stroke="black" fill="white"/>
<path d="M916,896 L940,896 M928,884 L928,908 " stroke="black"/>
<path d="M992,64 L992,832 " stroke="black"/>
<circle cx="992" cy="64" r="12" stroke="none" fill="black"/>
<circle cx="992" cy="832" r="12" stroke="black" fill="white"/>
<path d="M980,832 L1004,832 M992,820 L992,844 " stroke="black"/>
<rect x="1040" y="816" width="32" height="32" stroke="black" fill="black"/>
<text dominant-baseline="central" text-anchor="middle" font-family="monospace" font-size="30" x="1056" y="832" fill="white">M</text>
<text text-anchor="middle" font-family="monospace" font-size="8" x="1056" y="812">rec[0]</text>
<rect x="1040" y="944" width="32" height="32" stroke="black" fill="black"/>
<text dominant-baseline="central" text-anchor="middle" font-family="monospace" font-size="30" x="1056" y="960" fill="white">R</text>
<path d="M1120,512 L1120,960 " stroke="black"/>
<circle cx="1120" cy="512" r="12" stroke="none" fill="black"/>
<circle cx="1120" cy="960" r="12" stroke="black" fill="white"/>
<path d="M1108,960 L1132,960 M1120,948 L1120,972 " stroke="black"/>
<rect x="1168" y="752" width="32" height="32" stroke="black" fill="black"/>
<text dominant-baseline="central" text-anchor="middle" font-family="monospace" font-size="30" x="1184" y="768" fill="white">R</text>
<path d="M1248,64 L1248,768 " stroke="black"/>
<circle cx="1248" cy="64" r="12" stroke="none" fill="black"/>
<circle cx="1248" cy="768" r="12" stroke="black" fill="white"/>
<path d="M1236,768 L1260,768 M1248,756 L1248,780 " stroke="black"/>
<path d="M1312,64 L1312,960 " stroke="black"/>
<circle cx="1312" cy="64" r="12" stroke="none" fill="black"/>
<circle cx="1312" cy="960" r="12" stroke="black" fill="white"/>
<path d="M1300,960 L1324,960 M1312,948 L1312,972 " stroke="black"/>
<rect x="1360" y="944" width="32" height="32" stroke="black" fill="black"/>
<text dominant-baseline="central" text-anchor="middle" font-family="monospace" font-size="30" x="1376" y="960" fill="white">M</text>
<text text-anchor="middle" font-family="monospace" font-size="8" x="1376" y="940">rec[1]</text>
<rect x="1360" y="1008" width="32" height="32" stroke="black" fill="black"/>
<text dominant-baseline="central" text-anchor="middle" font-family="monospace" font-size="30" x="1376" y="1024" fill="white">R</text>
<path d="M1440,64 L1440,1024 " stroke="black"/>
<circle cx="1440" cy="64" r="12" stroke="none" fill="black"/>
<circle cx="1440" cy="1024" r="12" stroke="black" fill="white"/>
<path d="M1428,1024 L1452,1024 M1440,1012 L1440,1036 " stroke="black"/>
<path d="M1504,192 L1504,1024 " stroke="black"/>
<circle cx="1504" cy="192" r="12" stroke="none" fill="black"/>
<circle cx="1504" cy="1024" r="12" stroke="black" fill="white"/>
<path d="M1492,1024 L1516,1024 M1504,1012 L1504,1036 " stroke="black"/>
<rect x="1552" y="1008" width="32" height="32" stroke="black" fill="black"/>
<text dominant-baseline="central" text-anchor="middle" font-family="monospace" font-size="30" x="1568" y="1024" fill="white">M</text>
<text text-anchor="middle" font-family="monospace" font-size="8" x="1568" y="1004">rec[2]</text>
<rect x="1552" y="1072" width="32" height="32" stroke="black" fill="black"/>
<text dominant-baseline="central" text-anchor="middle" font-family="monospace" font-size="30" x="1568" y="1088" fill="white">R</text>
<path d="M1632,192 L1632,1088 " stroke="black"/>
<circle cx="1632" cy="192" r="12" stroke="none" fill="black"/>
<circle cx="1632" cy="1088" r="12" stroke="black" fill="white"/>
<path d="M1620,1088 L1644,1088 M1632,1076 L1632,1100 " stroke="black"/>
<path d="M1696,128 L1696,1088 " stroke="black"/>
<circle cx="1696" cy="128" r="12" stroke="none" fill="black"/>
<circle cx="1696" cy="1088" r="12" stroke="black" fill="white"/>
<path d="M1684,1088 L1708,1088 M1696,1076 L1696,1100 " stroke="black"/>
<rect x="1744" y="1072" width="32" height="32" stroke="black" fill="black"/>
<text dominant-baseline="central" text-anchor="middle" font-family="monospace" font-size="30" x="1760" y="1088" fill="white">M</text>
<text text-anchor="middle" font-family="monospace" font-size="8" x="1760" y="1068">rec[3]</text>
<path d="M1760,128 L1760,896 " stroke="black"/>
<circle cx="1760" cy="128" r="12" stroke="none" fill="black"/>
<circle cx="1760" cy="896" r="12" stroke="black" fill="white"/>
<path d="M1748,896 L1772,896 M1760,884 L1760,908 " stroke="black"/>
<rect x="1808" y="880" width="32" height="32" stroke="black" fill="black"/>
<text dominant-baseline="central" text-anchor="middle" font-family="monospace" font-size="30" x="1824" y="896" fill="white">M</text>
<text text-anchor="middle" font-family="monospace" font-size="8" x="1824" y="876">rec[4]</text>
<rect x="1808" y="816" width="160" height="32" stroke="black" fill="lightgray"/>
<text dominant-baseline="central" text-anchor="middle" font-family="monospace" font-size="16" x="1888" y="832">DETECTOR</text>
<text text-anchor="middle" font-family="monospace" font-size="8" x="1888" y="812">D0 = rec[0]</text>
<rect x="1808" y="944" width="160" height="32" stroke="black" fill="lightgray"/>
<text dominant-baseline="central" text-anchor="middle" font-family="monospace" font-size="16" x="1888" y="960">DETECTOR</text>
<text text-anchor="middle" font-family="monospace" font-size="8" x="1888" y="940">D1 = rec[1]</text>
<rect x="1808" y="1008" width="160" height="32" stroke="black" fill="lightgray"/>
<text dominant-baseline="central" text-anchor="middle" font-family="monospace" font-size="16" x="1888" y="1024">DETECTOR</text>
<text text-anchor="middle" font-family="monospace" font-size="8" x="1888" y="1004">D2 = rec[2]</text>
<rect x="1808" y="1072" width="160" height="32" stroke="black" fill="lightgray"/>
<text dominant-baseline="central" text-anchor="middle" font-family="monospace" font-size="16" x="1888" y="1088">DETECTOR</text>
<text text-anchor="middle" font-family="monospace" font-size="8" x="1888" y="1068">D3 = rec[3]</text>
<rect x="2000" y="880" width="160" height="32" stroke="black" fill="lightgray"/>
<text dominant-baseline="central" text-anchor="middle" font-family="monospace" font-size="16" x="2080" y="896">DETECTOR</text>
<text text-anchor="middle" font-family="monospace" font-size="8" x="2080" y="876">D4 = rec[4]</text>
</svg>